<svg xmlns="http://www.w3.org/2000/svg" viewBox="0 0 32 32">
  <!-- Purple rounded app-icon background -->
  <rect width="32" height="32" rx="7" fill="#863bff"/>
  <!-- Electric guitar: headstock upper-left, Stratocaster-style body lower-right -->
  <!-- Single closed path: headstock → neck (right edge) → body → neck (left edge) → headstock -->
  <path fill="white" d="
    M3 6 L6 3
    C8 2 10 4 10 7
    L21 18
    C23 17 27 19 27 23
    C27 27 25 30 22 30
    C19 31 16 30 15 28
    C14 30 12 31 11 30
    C10 29 9 27 10 25
    C9 24 9 21 11 20
    C10 18 11 16 14 17
    C16 18 17 20 19 20
    L8 9
    C8 7 6 6 5 7
    Z
  "/>
</svg>
