<svg xmlns="http://www.w3.org/2000/svg" width="1032" height="396" viewBox="0 0 1032 396" font-family="ui-sans-serif"><defs><linearGradient id="wood" x1="0" y1="0" x2="0" y2="1"><stop offset="0" stop-color="#fbe6c6"/><stop offset="1" stop-color="#e0ab68"/></linearGradient></defs><rect width="1032" height="396" fill="#faf7f2"/><g transform="translate(12,0)"><text x="36" y="20" font-size="18" font-weight="700" fill="#2a251d" font-family="ui-sans-serif">Dm7  (ii — current)</text><g transform="translate(0,30)"><rect x="70" y="26" width="400" height="216" rx="6" fill="url(#wood)"/><rect x="70" y="33" width="400" height="2" fill="rgba(120,70,30,0.10)"/><rect x="70" y="69" width="400" height="2" fill="rgba(120,70,30,0.10)"/><rect x="70" y="105" width="400" height="2" fill="rgba(120,70,30,0.10)"/><rect x="70" y="141" width="400" height="2" fill="rgba(120,70,30,0.10)"/><rect x="70" y="177" width="400" height="2" fill="rgba(120,70,30,0.10)"/><rect x="70" y="213" width="400" height="2" fill="rgba(120,70,30,0.10)"/><line x1="150" y1="26" x2="150" y2="242" stroke="rgba(120,70,30,0.40)" stroke-width="2.5"/><line x1="230" y1="26" x2="230" y2="242" stroke="rgba(120,70,30,0.40)" stroke-width="2.5"/><line x1="310" y1="26" x2="310" y2="242" stroke="rgba(120,70,30,0.40)" stroke-width="2.5"/><line x1="390" y1="26" x2="390" y2="242" stroke="rgba(120,70,30,0.40)" stroke-width="2.5"/><line x1="470" y1="26" x2="470" y2="242" stroke="rgba(120,70,30,0.40)" stroke-width="2.5"/><line x1="70" y1="26" x2="70" y2="242" stroke="#7a5a38" stroke-width="6"/><line x1="38" y1="44" x2="470" y2="44" stroke="rgba(60,40,20,0.55)" stroke-width="0.8"/><line x1="38" y1="80" x2="470" y2="80" stroke="rgba(60,40,20,0.55)" stroke-width="1.2000000000000002"/><line x1="38" y1="116" x2="470" y2="116" stroke="rgba(60,40,20,0.55)" stroke-width="1.6"/><line x1="38" y1="152" x2="470" y2="152" stroke="rgba(60,40,20,0.55)" stroke-width="2"/><line x1="38" y1="188" x2="470" y2="188" stroke="rgba(60,40,20,0.55)" stroke-width="2.4000000000000004"/><line x1="38" y1="224" x2="470" y2="224" stroke="rgba(60,40,20,0.55)" stroke-width="2.8"/><text x="270" y="257" text-anchor="middle" font-size="10" fill="#8a7a64" font-family="ui-sans-serif">3</text><text x="430" y="257" text-anchor="middle" font-size="10" fill="#8a7a64" font-family="ui-sans-serif">5</text><g><circle cx="110" cy="44" r="22" fill="none" stroke="rgba(0,0,0,0.5)" stroke-width="4.5"/><circle cx="110" cy="44" r="22" fill="none" stroke="#0f9d72" stroke-width="2.6" stroke-dasharray="3.5 3.5"/><circle cx="110" cy="44" r="16" fill="#e3ddd8" stroke="#574d40" stroke-width="2.4"/><text x="110" y="44.5" text-anchor="middle" dominant-baseline="central" font-size="13" font-weight="700" fill="#2a251d" font-family="ui-sans-serif">♭3</text></g><g><circle cx="430" cy="44" r="16" fill="#e3ddd8" stroke="#574d40" stroke-width="2.4"/><text x="430" y="44.5" text-anchor="middle" dominant-baseline="central" font-size="13" font-weight="700" fill="#2a251d" font-family="ui-sans-serif">5</text></g><g><circle cx="110" cy="80" r="16" fill="#e3ddd8" stroke="#574d40" stroke-width="2.4"/><text x="110" y="80.5" text-anchor="middle" dominant-baseline="central" font-size="13" font-weight="700" fill="#2a251d" font-family="ui-sans-serif">♭7</text></g><g><circle cx="270" cy="80" r="22" fill="none" stroke="rgba(0,0,0,0.5)" stroke-width="4.5"/><circle cx="270" cy="80" r="22" fill="none" stroke="#0f9d72" stroke-width="2.6" stroke-dasharray="3.5 3.5"/><circle cx="270" cy="80" r="16" fill="#b5670a" stroke="#b1431b" stroke-width="2.4"/><text x="270" y="80.5" text-anchor="middle" dominant-baseline="central" font-size="13" font-weight="700" fill="#fff" font-family="ui-sans-serif">1</text></g><g><circle cx="190" cy="116" r="16" fill="#e3ddd8" stroke="#574d40" stroke-width="2.4"/><text x="190" y="116.5" text-anchor="middle" dominant-baseline="central" font-size="13" font-weight="700" fill="#2a251d" font-family="ui-sans-serif">5</text></g><g><circle cx="430" cy="116" r="16" fill="#e3ddd8" stroke="#574d40" stroke-width="2.4"/><text x="430" y="116.5" text-anchor="middle" dominant-baseline="central" font-size="13" font-weight="700" fill="#2a251d" font-family="ui-sans-serif">♭7</text></g><g><circle cx="40" cy="152" r="22" fill="none" stroke="rgba(0,0,0,0.5)" stroke-width="4.5"/><circle cx="40" cy="152" r="22" fill="none" stroke="#0f9d72" stroke-width="2.6" stroke-dasharray="3.5 3.5"/><circle cx="40" cy="152" r="16" fill="#b5670a" stroke="#b1431b" stroke-width="2.4"/><text x="40" y="152.5" text-anchor="middle" dominant-baseline="central" font-size="13" font-weight="700" fill="#fff" font-family="ui-sans-serif">1</text></g><g><circle cx="270" cy="152" r="22" fill="none" stroke="rgba(0,0,0,0.5)" stroke-width="4.5"/><circle cx="270" cy="152" r="22" fill="none" stroke="#0f9d72" stroke-width="2.6" stroke-dasharray="3.5 3.5"/><circle cx="270" cy="152" r="16" fill="#e3ddd8" stroke="#574d40" stroke-width="2.4"/><text x="270" y="152.5" text-anchor="middle" dominant-baseline="central" font-size="13" font-weight="700" fill="#2a251d" font-family="ui-sans-serif">♭3</text></g><g><circle cx="40" cy="188" r="16" fill="#e3ddd8" stroke="#574d40" stroke-width="2.4"/><text x="40" y="188.5" text-anchor="middle" dominant-baseline="central" font-size="13" font-weight="700" fill="#2a251d" font-family="ui-sans-serif">5</text></g><g><circle cx="270" cy="188" r="16" fill="#e3ddd8" stroke="#574d40" stroke-width="2.4"/><text x="270" y="188.5" text-anchor="middle" dominant-baseline="central" font-size="13" font-weight="700" fill="#2a251d" font-family="ui-sans-serif">♭7</text></g><g><circle cx="430" cy="188" r="22" fill="none" stroke="rgba(0,0,0,0.5)" stroke-width="4.5"/><circle cx="430" cy="188" r="22" fill="none" stroke="#0f9d72" stroke-width="2.6" stroke-dasharray="3.5 3.5"/><circle cx="430" cy="188" r="16" fill="#b5670a" stroke="#b1431b" stroke-width="2.4"/><text x="430" y="188.5" text-anchor="middle" dominant-baseline="central" font-size="13" font-weight="700" fill="#fff" font-family="ui-sans-serif">1</text></g><g><circle cx="110" cy="224" r="22" fill="none" stroke="rgba(0,0,0,0.5)" stroke-width="4.5"/><circle cx="110" cy="224" r="22" fill="none" stroke="#0f9d72" stroke-width="2.6" stroke-dasharray="3.5 3.5"/><circle cx="110" cy="224" r="16" fill="#e3ddd8" stroke="#574d40" stroke-width="2.4"/><text x="110" y="224.5" text-anchor="middle" dominant-baseline="central" font-size="13" font-weight="700" fill="#2a251d" font-family="ui-sans-serif">♭3</text></g><g><circle cx="430" cy="224" r="16" fill="#e3ddd8" stroke="#574d40" stroke-width="2.4"/><text x="430" y="224.5" text-anchor="middle" dominant-baseline="central" font-size="13" font-weight="700" fill="#2a251d" font-family="ui-sans-serif">5</text></g></g></g><g transform="translate(528,0)"><text x="36" y="20" font-size="18" font-weight="700" fill="#2a251d" font-family="ui-sans-serif">G7  (V — next)</text><g transform="translate(0,30)"><rect x="70" y="26" width="400" height="216" rx="6" fill="url(#wood)"/><rect x="70" y="33" width="400" height="2" fill="rgba(120,70,30,0.10)"/><rect x="70" y="69" width="400" height="2" fill="rgba(120,70,30,0.10)"/><rect x="70" y="105" width="400" height="2" fill="rgba(120,70,30,0.10)"/><rect x="70" y="141" width="400" height="2" fill="rgba(120,70,30,0.10)"/><rect x="70" y="177" width="400" height="2" fill="rgba(120,70,30,0.10)"/><rect x="70" y="213" width="400" height="2" fill="rgba(120,70,30,0.10)"/><line x1="150" y1="26" x2="150" y2="242" stroke="rgba(120,70,30,0.40)" stroke-width="2.5"/><line x1="230" y1="26" x2="230" y2="242" stroke="rgba(120,70,30,0.40)" stroke-width="2.5"/><line x1="310" y1="26" x2="310" y2="242" stroke="rgba(120,70,30,0.40)" stroke-width="2.5"/><line x1="390" y1="26" x2="390" y2="242" stroke="rgba(120,70,30,0.40)" stroke-width="2.5"/><line x1="470" y1="26" x2="470" y2="242" stroke="rgba(120,70,30,0.40)" stroke-width="2.5"/><line x1="70" y1="26" x2="70" y2="242" stroke="#7a5a38" stroke-width="6"/><line x1="38" y1="44" x2="470" y2="44" stroke="rgba(60,40,20,0.55)" stroke-width="0.8"/><line x1="38" y1="80" x2="470" y2="80" stroke="rgba(60,40,20,0.55)" stroke-width="1.2000000000000002"/><line x1="38" y1="116" x2="470" y2="116" stroke="rgba(60,40,20,0.55)" stroke-width="1.6"/><line x1="38" y1="152" x2="470" y2="152" stroke="rgba(60,40,20,0.55)" stroke-width="2"/><line x1="38" y1="188" x2="470" y2="188" stroke="rgba(60,40,20,0.55)" stroke-width="2.4000000000000004"/><line x1="38" y1="224" x2="470" y2="224" stroke="rgba(60,40,20,0.55)" stroke-width="2.8"/><text x="270" y="257" text-anchor="middle" font-size="10" fill="#8a7a64" font-family="ui-sans-serif">3</text><text x="430" y="257" text-anchor="middle" font-size="10" fill="#8a7a64" font-family="ui-sans-serif">5</text><g><circle cx="110" cy="44" r="22" fill="none" stroke="rgba(0,0,0,0.5)" stroke-width="4.5"/><circle cx="110" cy="44" r="22" fill="none" stroke="#0f9d72" stroke-width="2.6" stroke-dasharray="3.5 3.5"/><circle cx="110" cy="44" r="16" fill="#e3ddd8" stroke="#574d40" stroke-width="2.4"/><text x="110" y="44.5" text-anchor="middle" dominant-baseline="central" font-size="13" font-weight="700" fill="#2a251d" font-family="ui-sans-serif">♭7</text></g><g><circle cx="270" cy="44" r="16" fill="#b5670a" stroke="#b1431b" stroke-width="2.4"/><text x="270" y="44.5" text-anchor="middle" dominant-baseline="central" font-size="13" font-weight="700" fill="#fff" font-family="ui-sans-serif">1</text></g><g><circle cx="40" cy="80" r="16" fill="#e3ddd8" stroke="#574d40" stroke-width="2.4"/><text x="40" y="80.5" text-anchor="middle" dominant-baseline="central" font-size="13" font-weight="700" fill="#2a251d" font-family="ui-sans-serif">3</text></g><g><circle cx="270" cy="80" r="22" fill="none" stroke="rgba(0,0,0,0.5)" stroke-width="4.5"/><circle cx="270" cy="80" r="22" fill="none" stroke="#0f9d72" stroke-width="2.6" stroke-dasharray="3.5 3.5"/><circle cx="270" cy="80" r="16" fill="#e3ddd8" stroke="#574d40" stroke-width="2.4"/><text x="270" y="80.5" text-anchor="middle" dominant-baseline="central" font-size="13" font-weight="700" fill="#2a251d" font-family="ui-sans-serif">5</text></g><g><circle cx="40" cy="116" r="16" fill="#b5670a" stroke="#b1431b" stroke-width="2.4"/><text x="40" y="116.5" text-anchor="middle" dominant-baseline="central" font-size="13" font-weight="700" fill="#fff" font-family="ui-sans-serif">1</text></g><g><circle cx="350" cy="116" r="16" fill="#e3ddd8" stroke="#574d40" stroke-width="2.4"/><text x="350" y="116.5" text-anchor="middle" dominant-baseline="central" font-size="13" font-weight="700" fill="#2a251d" font-family="ui-sans-serif">3</text></g><g><circle cx="40" cy="152" r="22" fill="none" stroke="rgba(0,0,0,0.5)" stroke-width="4.5"/><circle cx="40" cy="152" r="22" fill="none" stroke="#0f9d72" stroke-width="2.6" stroke-dasharray="3.5 3.5"/><circle cx="40" cy="152" r="16" fill="#e3ddd8" stroke="#574d40" stroke-width="2.4"/><text x="40" y="152.5" text-anchor="middle" dominant-baseline="central" font-size="13" font-weight="700" fill="#2a251d" font-family="ui-sans-serif">5</text></g><g><circle cx="270" cy="152" r="22" fill="none" stroke="rgba(0,0,0,0.5)" stroke-width="4.5"/><circle cx="270" cy="152" r="22" fill="none" stroke="#0f9d72" stroke-width="2.6" stroke-dasharray="3.5 3.5"/><circle cx="270" cy="152" r="16" fill="#e3ddd8" stroke="#574d40" stroke-width="2.4"/><text x="270" y="152.5" text-anchor="middle" dominant-baseline="central" font-size="13" font-weight="700" fill="#2a251d" font-family="ui-sans-serif">♭7</text></g><g><circle cx="430" cy="152" r="16" fill="#b5670a" stroke="#b1431b" stroke-width="2.4"/><text x="430" y="152.5" text-anchor="middle" dominant-baseline="central" font-size="13" font-weight="700" fill="#fff" font-family="ui-sans-serif">1</text></g><g><circle cx="190" cy="188" r="16" fill="#e3ddd8" stroke="#574d40" stroke-width="2.4"/><text x="190" y="188.5" text-anchor="middle" dominant-baseline="central" font-size="13" font-weight="700" fill="#2a251d" font-family="ui-sans-serif">3</text></g><g><circle cx="430" cy="188" r="22" fill="none" stroke="rgba(0,0,0,0.5)" stroke-width="4.5"/><circle cx="430" cy="188" r="22" fill="none" stroke="#0f9d72" stroke-width="2.6" stroke-dasharray="3.5 3.5"/><circle cx="430" cy="188" r="16" fill="#e3ddd8" stroke="#574d40" stroke-width="2.4"/><text x="430" y="188.5" text-anchor="middle" dominant-baseline="central" font-size="13" font-weight="700" fill="#2a251d" font-family="ui-sans-serif">5</text></g><g><circle cx="110" cy="224" r="22" fill="none" stroke="rgba(0,0,0,0.5)" stroke-width="4.5"/><circle cx="110" cy="224" r="22" fill="none" stroke="#0f9d72" stroke-width="2.6" stroke-dasharray="3.5 3.5"/><circle cx="110" cy="224" r="16" fill="#e3ddd8" stroke="#574d40" stroke-width="2.4"/><text x="110" y="224.5" text-anchor="middle" dominant-baseline="central" font-size="13" font-weight="700" fill="#2a251d" font-family="ui-sans-serif">♭7</text></g><g><circle cx="270" cy="224" r="16" fill="#b5670a" stroke="#b1431b" stroke-width="2.4"/><text x="270" y="224.5" text-anchor="middle" dominant-baseline="central" font-size="13" font-weight="700" fill="#fff" font-family="ui-sans-serif">1</text></g></g></g><text x="518" y="168" text-anchor="middle" font-size="22" fill="#0f9d72" font-weight="700">→</text><g font-family="ui-sans-serif" font-size="12.5" fill="#4a4032"><text x="14" y="318" font-weight="700" fill="#2a251d">Common / pivot lens — what survives the ii→V change (the teal dashed rings):</text><text x="14" y="338"><tspan font-weight="700" fill="#0f9d72">F</tspan> is held: it re-functions ♭3 of Dm7 → ♭7 of G7.   <tspan font-weight="700" fill="#0f9d72">D</tspan> is held: it re-functions 1 of Dm7 → 5 of G7.</text><text x="14" y="358">The static chord overlay shows only ONE chord, so it can never show this intersection — only a time-aware lens can. (Levine; The Jazz Piano Site, voice leading.)</text><text x="14" y="378" fill="#8a7a64" font-size="11.5">Amber = chord root · neutral = other chord tones · teal dashed ring = common tone held across the change.</text></g></svg>